<svg xmlns="http://www.w3.org/2000/svg" viewBox="0 0 32 32" fill="none">
  <defs>
    <linearGradient id="fGrad" x1="0" y1="0" x2="1" y2="1">
      <stop offset="0%" stop-color="#041632"/>
      <stop offset="100%" stop-color="#1b2b48"/>
    </linearGradient>
    <linearGradient id="fAccent" x1="0" y1="0" x2="0" y2="1">
      <stop offset="0%" stop-color="#b9eaff"/>
      <stop offset="100%" stop-color="#28657a"/>
    </linearGradient>
  </defs>

  <!-- Shield -->
  <path
    d="M16 2 L28.5 7.5 C28.5 7.5 29.5 20 16 30 C2.5 20 3.5 7.5 3.5 7.5 Z"
    fill="url(#fGrad)"
  />

  <!-- Keyhole circle -->
  <circle cx="16" cy="13.5" r="4.5" fill="none" stroke="url(#fAccent)" stroke-width="1.2"/>

  <!-- Keyhole -->
  <path
    d="M16 11.5 C15 11.5 14.2 12.3 14.2 13.3 C14.2 14 14.7 14.6 15.3 14.9 L14.9 18.2 C14.9 18.5 15.1 18.7 15.4 18.7 L16.6 18.7 C16.9 18.7 17.1 18.5 17.1 18.2 L16.7 14.9 C17.3 14.6 17.8 14 17.8 13.3 C17.8 12.3 17 11.5 16 11.5Z"
    fill="url(#fAccent)"
  />

  <!-- Top diamond -->
  <rect
    x="15" y="5.5" width="2" height="2"
    rx="0.4"
    transform="rotate(45 16 6.5)"
    fill="#b9eaff"
    opacity="0.9"
  />
</svg>
